<?xml version="1.0" encoding="iso-8859-1"?>
<!-- Uploaded to: SVG Repo, www.svgrepo.com, Generator: SVG Repo Mixer Tools -->
<svg height="800px" width="800px" version="1.1" id="Layer_1" xmlns="http://www.w3.org/2000/svg" xmlns:xlink="http://www.w3.org/1999/xlink" 
	 viewBox="0 0 512 512" xml:space="preserve">
<path style="fill:#959CB5;" d="M192.136,2.014c-3.695-3.072-9.161-2.572-12.228,1.11s-2.568,9.153,1.11,12.221l52.068,43.39
	l11.119-13.33L192.136,2.014z"/>
<path style="fill:#C7CFE2;" d="M341.412,43.391H170.59c-6.049,0-11.55,3.217-14.807,8.315
	c-9.059,14.182-21.274,26.397-21.274,26.397v399.186c0,0,12.215,12.215,21.274,26.397c3.256,5.097,8.758,8.315,14.807,8.315h170.822
	c6.049,0,11.55-3.217,14.807-8.315c9.059-14.183,21.273-26.397,21.273-26.397V78.103c0,0-12.215-12.215-21.274-26.397
	C352.962,46.607,347.46,43.391,341.412,43.391z"/>
<path style="fill:#AFB9D2;" d="M253.081,503.686c-6.147-14.182-14.437-26.397-14.437-26.397V78.103c0,0,8.289-12.215,14.436-26.397
	c2.21-5.097,5.943-8.315,10.047-8.315h-92.538c-6.049,0-11.55,3.216-14.806,8.315c-9.059,14.182-21.274,26.397-21.274,26.397
	v399.186c0,0,12.215,12.215,21.274,26.397c3.255,5.097,8.757,8.315,14.806,8.315h92.538C259.023,512,255.29,508.783,253.081,503.686
	z"/>
<path style="fill:#FFDC64;" d="M377.491,477.289H134.509c-4.792,0-8.678-3.886-8.678-8.678V86.781c0-4.792,3.886-8.678,8.678-8.678
	h242.983c4.792,0,8.678,3.886,8.678,8.678v381.83C386.169,473.403,382.285,477.289,377.491,477.289z"/>
<path style="fill:#FFC850;" d="M229.966,468.611V86.781c0-4.792,3.886-8.678,8.678-8.678H134.509c-4.792,0-8.678,3.886-8.678,8.678
	v381.83c0,4.792,3.886,8.678,8.678,8.678h104.135C233.852,477.289,229.966,473.403,229.966,468.611z"/>
</svg>